<svg xmlns="http://www.w3.org/2000/svg">
  <defs>
    <symbol id="x" viewBox="0 0 24 24">
      <line x1="18" y1="6" x2="6" y2="18"></line><line x1="6" y1="6" x2="18" y2="18"></line>
    </symbol>
    <symbol id="upload" viewBox="0 0 24 24">
      <path d="M21 15v4a2 2 0 0 1-2 2H5a2 2 0 0 1-2-2v-4"></path><polyline points="17 8 12 3 7 8"></polyline><line x1="12" y1="3" x2="12" y2="15"></line>
    </symbol>
    <symbol id="download" viewBox="0 0 24 24">
      <path d="M21 15v4a2 2 0 0 1-2 2H5a2 2 0 0 1-2-2v-4"></path><polyline points="7 10 12 15 17 10"></polyline><line x1="12" y1="15" x2="12" y2="3"></line>
    </symbol>
    <symbol id="pen" viewBox="0 0 24 24">
      <path d="M17 3a2.828 2.828 0 1 1 4 4L7.5 20.5 2 22l1.5-5.5L17 3z"></path>
    </symbol>
    <symbol id="settings-2" viewBox="0 0 24 24">
      <path d="M19.4 15a1.65 1.65 0 0 0 .33 1.82l.06.06a2 2 0 0 1 0 2.83 2 2 0 0 1-2.83 0l-.06-.06a1.65 1.65 0 0 0-1.82-.33 1.65 1.65 0 0 0-1 1.51V21a2 2 0 0 1-2 2 2 2 0 0 1-2-2v-.09A1.65 1.65 0 0 0 9 19.4a1.65 1.65 0 0 0-1.82.33l-.06.06a2 2 0 0 1-2.83 0 2 2 0 0 1 0-2.83l.06-.06a1.65 1.65 0 0 0 .33-1.82 1.65 1.65 0 0 0-1.51-1H3a2 2 0 0 1-2-2 2 2 0 0 1 2-2h.09A1.65 1.65 0 0 0 4.6 9a1.65 1.65 0 0 0-.33-1.82l-.06-.06a2 2 0 0 1 0-2.83 2 2 0 0 1 2.83 0l.06.06a1.65 1.65 0 0 0 1.82.33H9a1.65 1.65 0 0 0 1-1.51V3a2 2 0 0 1 2-2 2 2 0 0 1 2 2v.09a1.65 1.65 0 0 0 1 1.51 1.65 1.65 0 0 0 1.82-.33l.06-.06a2 2 0 0 1 2.83 0 2 2 0 0 1 0 2.83l-.06.06a1.65 1.65 0 0 0-.33 1.82V9a1.65 1.65 0 0 0 1.51 1H21a2 2 0 0 1 2 2 2 2 0 0 1-2 2h-.09a1.65 1.65 0 0 0-1.51 1zM12 8a 4,4 0 0 0 -4,4a 4,4 0 0 0 4,4a 4,4 0 0 0 4,-4a 4,4 0 0 0 -4,-4"></path>
    </symbol>

    <symbol id="eraser" viewBox="0 0 24 24">
		<path d="M20 20H7l-4-4c-.5-.5-.5-1.5 0-2L13 4l7 7-9 9" />
		<path d="M6 11l7 7" />
    </symbol>

    <symbol id="hand" viewBox="0 0 24 24">
		<path d="M18 11V6a2 2 0 00-2-2v0a2 2 0 00-2 2v0"></path>
		<path d="M14 10V4a2 2 0 00-2-2v0a2 2 0 00-2 2v2"></path>
		<path d="M10 10.5V6a2 2 0 00-2-2v0a2 2 0 00-2 2v8"></path>
		<path d="M18 8a2 2 0 114 0v6a8 8 0 01-8 8h-2c-2.8 0-4.5-.86-5.99-2.34l-3.6-3.6a2 2 0 012.83-2.82L7 15"></path>
    </symbol>
    <symbol id="redo" viewBox="0 0 24 24">
		<path d="M21 7v6h-6"></path>
		<path d="M3 17a9 9 0 019-9 9 9 0 016 2.3l3 2.7"></path>
    </symbol>
    <symbol id="undo" viewBox="0 0 24 24">
		<path d="M3 7v6h6"></path>
		<path d="M21 17a9 9 0 00-9-9 9 9 0 00-6 2.3L3 13"></path>
    </symbol>

    <symbol id="grid" viewBox="0 0 24 24">
		<rect x="3" y="3" width="18" height="18" rx="2" ry="2"></rect>
		<line x1="3" y1="9" x2="21" y2="9"></line>
		<line x1="3" y1="15" x2="21" y2="15"></line>
		<line x1="9" y1="3" x2="9" y2="21"></line>
		<line x1="15" y1="3" x2="15" y2="21"></line>
    </symbol>

    <symbol id="repeat" viewBox="0 0 24 24">
      <polyline points="17 1 21 5 17 9"></polyline><path d="M3 11V9a4 4 0 0 1 4-4h14"></path><polyline points="7 23 3 19 7 15"></polyline><path d="M21 13v2a4 4 0 0 1-4 4H3"></path>
    </symbol>
    <symbol id="play" viewBox="0 0 24 24">
      <polygon points="5 3 19 12 5 21 5 3"></polygon>
    </symbol>
    <symbol id="pause" viewBox="0 0 24 24">
      <rect x="6" y="4" width="4" height="16"></rect><rect x="14" y="4" width="4" height="16"></rect>
    </symbol>
  </defs>
</svg>
